<svg xmlns="http://www.w3.org/2000/svg" x="0px" y="0px" viewBox="-10 -10 270 100">
    <g>
        <path fill="#454547" d="M47.2,39.5l0,16.2c0,4.1,2.1,6.2,6.2,6.2h1.8c4.1,0,6.2-2.1,6.2-6.2v-7.9h9.5v7.6
	c0,10.4-5.3,15.6-15.6,15.6h-2.1c-10.4,0-15.6-5.3-15.6-14.4V17c0-11.6,5.3-16.9,15.6-16.9h2.1c10.4,0,15.6,5.3,15.6,15.6l0,23.7
	H47.2z M47.3,30.1h13.8V15.4c0-4.1-2-6.2-6.2-6.2h-1.5c-4.1,0-6.2,2.1-6.2,6.2V30.1z" />
        <path fill="#454547" d="M77.2,0.9h9.7v4.5c2.3-2.4,6.3-5.3,11.9-5.3c8.3,0,12.4,5.5,12.4,13.7v43.3c0,8.2-4.1,13.7-12.4,13.7
	c-5.6,0-9.6-2.7-11.9-5v22.3h-9.7V0.9z M86.9,58.1c2.7,2.3,5.8,3.6,9,3.6c3.6,0,5.6-1.7,5.6-5.6V15c0-4-2.1-5.6-5.6-5.6
	c-3.2,0-6.3,1.3-9,3.6V58.1z" />
        <path fill="#454547" d="M117.1,46c0-8.6,2.8-12,10.3-14.6l13.1-4.5V15.4c0-4.1-2.1-6.3-6.2-6.3h-1.6c-4.1,0-6.2,2.2-6.2,6.3v9.8
	h-9.5v-9.4c0-10.4,5.3-15.6,15.6-15.6h1.8c10.4,0,15.6,5.3,15.6,15.6v54.3h-9.7v-4.4c-2.7,2.6-6.3,5.1-11.9,5.1
	c-7.8,0-11.4-4.5-11.4-12.2V46z M140.5,58.5V35.6l-8.8,3.3c-3.6,1.4-4.7,3.2-4.7,7.2v10.5c0,3.3,1.7,5,4.7,5
	C134.6,61.7,137.3,60.7,140.5,58.5z" />
        <path fill="#454547" d="M189.6,70.1h-9.7V14.4c0-3.5-1.7-5-4.6-5c-2.7,0-5.5,1-9,3.5v57.3h-9.7V0.9h9.7v4.5
	c2.8-2.7,6.5-5.3,11.9-5.3c5,0,8.3,2.1,10.1,5.6c3.5-2.9,7.6-5.6,13.2-5.6c7.6,0,11.4,4.6,11.4,12.2v57.8h-9.7V14.4
	c0-3.5-1.7-5-4.6-5c-2.7,0-5.5,1-9,3.5V70.1z" />
        <path fill="#00B4D0" d="M25,7.3V20L8.6,35.6L25,51v13L0,40.5v-9.4L25,7.3z" />
        <path fill="#00B4D0" d="M250.3,31.1v9.4l-25,23.5V51l16.4-15.3L225.3,20V7.3L250.3,31.1z" />
    </g>
</svg>