<?xml version="1.0" encoding="UTF-8" standalone="no"?>
<svg
   xmlns:dc="http://purl.org/dc/elements/1.1/"
   xmlns:cc="http://creativecommons.org/ns#"
   xmlns:rdf="http://www.w3.org/1999/02/22-rdf-syntax-ns#"
   xmlns:svg="http://www.w3.org/2000/svg"
   xmlns="http://www.w3.org/2000/svg"
   viewBox="0 0 230.30667 115.98667"
   height="115.98667"
   width="230.30667"
   xml:space="preserve"
   id="svg2"
   version="1.1"><metadata
     id="metadata8"><rdf:RDF><cc:Work
         rdf:about=""><dc:format>image/svg+xml</dc:format><dc:type
           rdf:resource="http://purl.org/dc/dcmitype/StillImage" /></cc:Work></rdf:RDF></metadata><defs
     id="defs6"><clipPath
       id="clipPath20"
       clipPathUnits="userSpaceOnUse"><path
         id="path18"
         d="M 0,0 H 1727 V 869.93 H 0 Z" /></clipPath></defs><g
     transform="matrix(1.3333333,0,0,-1.3333333,0,115.98667)"
     id="g10"><g
       transform="scale(0.1)"
       id="g12"><g
         id="g14"><g
           clip-path="url(#clipPath20)"
           id="g16"><path
             id="path22"
             style="fill:#ffffff;fill-opacity:1;fill-rule:nonzero;stroke:none"
             d="M 214.82,869.93 V 753.301 H 373.191 V 51.0625 h 126.45 V 753.301 H 659.238 V 869.93 Z M 0,51.0625 H 126.449 V 869.93 H 0 V 51.0625" /><path
             id="path24"
             style="fill:#89d03c;fill-opacity:1;fill-rule:nonzero;stroke:none"
             d="M 1653.96,869.93 1576.8,727.012 V 869.93 h -53.33 V 524.551 h 53.33 V 639.5 l 28.48,48.16 58,-163.109 h 58.51 l -83.36,220.058 73,125.321 z m -323.63,0 V 524.551 h 156.38 v 49.191 H 1383.66 V 680.41 h 76.13 v 49.192 h -76.13 v 91.14 h 103.05 v 49.188 z m -193.13,0 V 524.551 h 156.37 v 49.191 H 1190.53 V 680.41 h 76.12 v 49.192 h -76.12 v 91.14 h 103.04 v 49.188 z m -91.14,0 -34.68,-222.66 -45.575,222.66 h -46.09 L 878.297,647.27 838.945,869.93 h -51.789 l 64.731,-345.379 h 49.711 l 41.949,234.051 44.527,-234.051 h 49.706 l 58.51,345.379 h -50.23" /><path
             id="path26"
             style="fill:none;stroke:#89d03c;stroke-width:18.34000015;stroke-linecap:butt;stroke-linejoin:miter;stroke-miterlimit:4;stroke-dasharray:none;stroke-opacity:1"
             d="M 1727.28,419.785 H 776.805" /><path
             id="path28"
             style="fill:#ffffff;fill-opacity:1;fill-rule:nonzero;stroke:none"
             d="m 958.977,169.035 v -61.949 c 0,-15.3712 7.679,-23.0508 23.05,-23.0508 h 6.719 c 15.374,0 23.054,7.6796 23.054,23.0508 v 29.769 h 35.54 v -28.328 c 0,-38.902 -19.69,-58.5895 -58.594,-58.5895 h -7.68 c -38.898,0 -58.589,19.6875 -58.589,58.5895 v 147.911 c 0,38.898 19.691,58.589 58.589,58.589 h 7.68 c 38.904,0 58.594,-19.691 58.594,-58.589 v -87.403 z m 0,34.57 h 51.863 v 54.27 c 0,15.371 -7.68,23.051 -23.055,23.051 h -5.758 c -15.371,0 -23.05,-7.68 -23.05,-23.051 v -54.27" /><path
             id="path30"
             style="fill:#ffffff;fill-opacity:1;fill-rule:nonzero;stroke:none"
             d="m 1071.05,312.141 h 36.5 v -16.809 c 8.64,9.129 23.53,19.688 44.66,19.688 31.21,0 46.58,-20.649 46.58,-51.379 V 101.32 c 0,-30.7302 -15.37,-51.3786 -46.58,-51.3786 -21.13,0 -36.02,10.0898 -44.66,18.7305 V 0 h -36.5 z m 36.5,-214.1801 c 10.08,-8.6406 21.61,-13.4414 33.61,-13.4414 13.45,0 21.13,6.2422 21.13,21.1285 V 259.32 c 0,14.879 -7.68,21.129 -21.13,21.129 -12,0 -23.53,-4.808 -33.61,-13.449 V 97.9609" /><path
             id="path32"
             style="fill:#ffffff;fill-opacity:1;fill-rule:nonzero;stroke:none"
             d="m 1220.81,143.105 c 0,32.168 10.56,45.137 38.42,54.739 l 48.99,16.808 v 43.223 c 0,15.367 -7.69,23.527 -23.06,23.527 h -2.88 c -15.37,0 -23.05,-8.16 -23.05,-23.527 v -32.172 h -35.54 v 30.731 c 0,38.902 19.69,58.589 58.59,58.589 h 3.84 c 38.91,0 58.59,-19.687 58.59,-58.589 V 52.8242 h -36.49 v 16.3281 c -10.09,-9.6093 -23.54,-19.207 -44.67,-19.207 -29.29,0 -42.74,16.8086 -42.74,45.6172 z m 87.41,-46.5816 v 84.5196 l -33.15,-11.527 c -13.44,-5.282 -17.76,-12 -17.76,-26.891 v -39.383 c 0,-12.4764 6.24,-18.7264 17.76,-18.7264 11.05,0 21.13,3.8399 33.15,12.0078" /><path
             id="path34"
             style="fill:#ffffff;fill-opacity:1;fill-rule:nonzero;stroke:none"
             d="m 1493.33,52.8242 h -36.5 V 261.715 c 0,12.969 -6.24,18.726 -17.28,18.726 -10.09,0 -20.65,-3.839 -33.62,-12.957 V 52.8242 h -36.5 V 312.145 h 36.5 v -16.813 c 10.57,10.082 24.49,19.691 44.66,19.691 18.73,0 31.22,-7.679 37.94,-21.128 12.96,11.039 28.33,21.128 49.46,21.128 28.33,0 42.74,-17.289 42.74,-45.621 V 52.8242 h -36.5 V 261.715 c 0,12.969 -6.24,18.726 -17.28,18.726 -10.09,0 -20.65,-3.839 -33.62,-12.957 V 52.8242" /><path
             id="path36"
             style="fill:#ffffff;fill-opacity:1;fill-rule:nonzero;stroke:none"
             d="m 870.574,288.258 v -47.692 l -61.418,-58.519 61.418,-57.481 V 75.8359 l -93.769,88.1411 v 35.089 l 93.769,89.192" /><path
             id="path38"
             style="fill:#ffffff;fill-opacity:1;fill-rule:nonzero;stroke:none"
             d="m 1633.52,240.57 61.42,-58.531 -61.42,-57.48 V 75.8281 l 93.77,88.1519 v 35.079 l -93.77,89.191 v -47.68" /></g></g></g></g></svg>